<svg width="65" height="65" viewBox="0 0 65 65" fill="none" xmlns="http://www.w3.org/2000/svg">
    <path d="M36.2253 35.1667C37.698 35.1667 38.8919 36.3606 38.8919 37.8334C38.8919 39.2009 37.8625 40.3281 36.5362 40.4821L36.2253 40.5L23.8856 40.5023L21.3398 40.5262L19.8262 40.5662L18.9791 40.6059L18.2452 40.6575L17.6103 40.7222C17.512 40.7342 17.4172 40.7468 17.3256 40.7599L16.813 40.8469C16.5738 40.8944 16.3585 40.948 16.1593 41.0085L15.7799 41.139L15.4291 41.2891C15.3722 41.3158 15.316 41.3434 15.26 41.3719C13.7548 42.1389 12.5309 43.3628 11.7639 44.8681L11.6034 45.2099C11.5784 45.2683 11.5543 45.3276 11.5309 45.388L11.4005 45.7674C11.3601 45.9003 11.3228 46.0402 11.2884 46.1896L11.1934 46.6686C11.1789 46.7539 11.1651 46.8422 11.1519 46.9338L11.08 47.5244L11.022 48.207L10.9766 48.9957L10.9424 49.9047L10.9024 52.1396L10.8919 53.8334H36.2253C37.5928 53.8334 38.7199 54.8628 38.874 56.189L38.8919 56.5C38.8919 57.8676 37.8625 58.9947 36.5362 59.1488L36.2253 59.1667H8.22526C6.8577 59.1667 5.73057 58.1373 5.57653 56.811L5.55859 56.5L5.56114 53.329L5.5873 50.6561L5.63301 49.0097L5.67955 48.0578L5.74121 47.207L5.81993 46.4441C5.86388 46.0823 5.91495 45.7485 5.97425 45.4352L6.10412 44.8337C6.1277 44.7373 6.15227 44.6425 6.17788 44.5493L6.34427 44.0048C6.37418 43.9162 6.4052 43.8285 6.43738 43.7414L6.64466 43.2241L6.88162 42.7083L7.01184 42.4469C8.29015 39.938 10.3299 37.8982 12.8388 36.6199L13.4 36.3485C14.6048 35.7999 15.7762 35.5019 17.6799 35.3424L18.6132 35.2782L19.6673 35.2313L21.5113 35.1878L23.7209 35.1692L36.2253 35.1667ZM48.2253 36.5C49.5928 36.5 50.7199 37.5295 50.874 38.8557L50.8919 39.1667V44.5H56.2253C57.698 44.5 58.8919 45.6939 58.8919 47.1667C58.8919 48.5343 57.8625 49.6614 56.5362 49.8154L56.2253 49.8334H50.8919V55.1667C50.8919 56.6395 49.698 57.8334 48.2253 57.8334C46.8577 57.8334 45.7306 56.8039 45.5765 55.4777L45.5586 55.1667V49.8334H40.2253C38.7525 49.8334 37.5586 48.6395 37.5586 47.1667C37.5586 45.7991 38.588 44.672 39.9143 44.518L40.2253 44.5H45.5586V39.1667C45.5586 37.6939 46.7525 36.5 48.2253 36.5ZM25.5586 5.83337C32.186 5.83337 37.5586 11.206 37.5586 17.8334C37.5586 24.4608 32.186 29.8334 25.5586 29.8334C18.9312 29.8334 13.5586 24.4608 13.5586 17.8334C13.5586 11.206 18.9312 5.83337 25.5586 5.83337ZM25.5586 11.1667C21.8767 11.1667 18.8919 14.1515 18.8919 17.8334C18.8919 21.5153 21.8767 24.5 25.5586 24.5C29.2405 24.5 32.2253 21.5153 32.2253 17.8334C32.2253 14.1515 29.2405 11.1667 25.5586 11.1667Z" fill="black" fill-opacity="0.65"/>
    <path d="M25.5612 11.1666C21.8793 11.1666 18.8945 14.1514 18.8945 17.8333C18.8945 21.5152 21.8793 24.5 25.5612 24.5C29.2431 24.5 32.2279 21.5152 32.2279 17.8333C32.2279 14.1514 29.2431 11.1666 25.5612 11.1666Z" fill="#89CFF0"/>
</svg>
