<svg width="49" height="48" viewBox="0 0 49 48" fill="none" xmlns="http://www.w3.org/2000/svg">
    <path d="M40.6475 21C40.117 21 39.6083 21.2107 39.2332 21.5858C38.8582 21.9609 38.6475 22.4696 38.6475 23V37C38.6475 37.5304 38.4367 38.0391 38.0617 38.4142C37.6866 38.7893 37.1779 39 36.6475 39H8.64746C8.11703 39 7.60832 38.7893 7.23325 38.4142C6.85817 38.0391 6.64746 37.5304 6.64746 37V21C6.64746 20.4696 6.85817 19.9609 7.23325 19.5858C7.60832 19.2107 8.11703 19 8.64746 19H12.6475C13.0836 19.0228 13.5152 18.9021 13.8763 18.6566C14.2375 18.411 14.5083 18.054 14.6475 17.64L15.7275 14.36C15.8616 13.9628 16.1173 13.6177 16.4582 13.3737C16.7992 13.1296 17.2082 12.9989 17.6275 13H28.6475C29.1779 13 29.6866 12.7893 30.0617 12.4142C30.4367 12.0391 30.6475 11.5304 30.6475 11C30.6475 10.4696 30.4367 9.96086 30.0617 9.58579C29.6866 9.21071 29.1779 9 28.6475 9H17.5275C16.2706 9.00235 15.0461 9.39937 14.027 10.135C13.0079 10.8707 12.2455 11.9078 11.8475 13.1L11.2075 15.1H8.64746C7.05616 15.1 5.53004 15.7321 4.40482 16.8574C3.2796 17.9826 2.64746 19.5087 2.64746 21.1V37.1C2.64746 38.6913 3.2796 40.2174 4.40482 41.3426C5.53004 42.4679 7.05616 43.1 8.64746 43.1H36.6475C38.2388 43.1 39.7649 42.4679 40.8901 41.3426C42.0153 40.2174 42.6475 38.6913 42.6475 37.1V23.1C42.661 22.8291 42.6193 22.5582 42.5249 22.3039C42.4305 22.0496 42.2853 21.8171 42.0982 21.6207C41.9112 21.4242 41.6861 21.2679 41.4367 21.1612C41.1872 21.0545 40.9187 20.9997 40.6475 21ZM22.6475 19C21.0652 19 19.5185 19.4692 18.2029 20.3482C16.8873 21.2273 15.8619 22.4767 15.2564 23.9385C14.6509 25.4003 14.4925 27.0089 14.8012 28.5607C15.1099 30.1126 15.8718 31.538 16.9906 32.6569C18.1094 33.7757 19.5349 34.5376 21.0867 34.8463C22.6386 35.155 24.2471 34.9965 25.7089 34.391C27.1707 33.7855 28.4202 32.7602 29.2992 31.4446C30.1783 30.129 30.6475 28.5823 30.6475 27C30.6475 24.8783 29.8046 22.8434 28.3043 21.3431C26.804 19.8429 24.7692 19 22.6475 19ZM22.6475 31C21.8563 31 21.083 30.7654 20.4252 30.3259C19.7674 29.8864 19.2547 29.2616 18.9519 28.5307C18.6492 27.7998 18.57 26.9956 18.7243 26.2196C18.8787 25.4437 19.2596 24.731 19.819 24.1716C20.3784 23.6122 21.0912 23.2312 21.8671 23.0769C22.643 22.9225 23.4473 23.0017 24.1782 23.3045C24.9091 23.6072 25.5338 24.1199 25.9733 24.7777C26.4129 25.4355 26.6475 26.2089 26.6475 27C26.6475 28.0609 26.226 29.0783 25.4759 29.8284C24.7257 30.5786 23.7083 31 22.6475 31ZM44.6475 9H42.6475V7C42.6475 6.46957 42.4367 5.96086 42.0617 5.58579C41.6866 5.21071 41.1779 5 40.6475 5C40.117 5 39.6083 5.21071 39.2332 5.58579C38.8582 5.96086 38.6475 6.46957 38.6475 7V9H36.6475C36.117 9 35.6083 9.21071 35.2332 9.58579C34.8582 9.96086 34.6475 10.4696 34.6475 11C34.6475 11.5304 34.8582 12.0391 35.2332 12.4142C35.6083 12.7893 36.117 13 36.6475 13H38.6475V15C38.6475 15.5304 38.8582 16.0391 39.2332 16.4142C39.6083 16.7893 40.117 17 40.6475 17C41.1779 17 41.6866 16.7893 42.0617 16.4142C42.4367 16.0391 42.6475 15.5304 42.6475 15V13H44.6475C45.1779 13 45.6866 12.7893 46.0617 12.4142C46.4367 12.0391 46.6475 11.5304 46.6475 11C46.6475 10.4696 46.4367 9.96086 46.0617 9.58579C45.6866 9.21071 45.1779 9 44.6475 9Z" fill="white"/>
</svg>
