<svg width="16" height="15" viewBox="0 0 16 15" fill="none" xmlns="http://www.w3.org/2000/svg">
    <path d="M0.5 0.75C0.5 0.335786 0.835786 0 1.25 0H7.99689C8.4111 0 8.74689 0.335786 8.74689 0.75C8.74689 1.16421 8.4111 1.5 7.99689 1.5H2V13.5H8C8.41421 13.5 8.75 13.8358 8.75 14.25C8.75 14.6642 8.41421 15 8 15H1.25C0.835786 15 0.5 14.6642 0.5 14.25V0.75Z" fill="#5400E2"/>
    <path d="M10.8447 3.59467C11.1376 3.30178 11.6124 3.30178 11.9053 3.59467L15.2394 6.9287C15.399 7.06623 15.5 7.26985 15.5 7.49707L15.5 7.49845C15.5004 7.69091 15.4272 7.88349 15.2803 8.03033L11.9053 11.4053C11.6124 11.6982 11.1376 11.6982 10.8447 11.4053C10.5518 11.1124 10.5518 10.6376 10.8447 10.3447L12.9423 8.24707H5C4.58579 8.24707 4.25 7.91128 4.25 7.49707C4.25 7.08286 4.58579 6.74707 5 6.74707H12.9364L10.8447 4.65533C10.5518 4.36244 10.5518 3.88756 10.8447 3.59467Z" fill="#5400E2"/>
</svg>
