<svg width="24" height="24" viewBox="0 0 24 24" fill="none" xmlns="http://www.w3.org/2000/svg">
    <path d="M20.1667 12.1357H12V3.96899C12 3.26899 11.5334 2.80233 10.8334 2.80233C5.00004 2.80233 0.333374 7.46899 0.333374 13.3023C0.333374 19.1357 5.00004 23.8023 10.8334 23.8023C16.6667 23.8023 21.3334 19.1357 21.3334 13.3023C21.3334 12.6023 20.8667 12.1357 20.1667 12.1357ZM12 21.3523C7.56671 22.0523 3.36671 18.9023 2.78337 14.469C2.08337 10.0357 5.23337 5.83566 9.66671 5.25233V13.3023C9.66671 14.0023 10.1334 14.469 10.8334 14.469H18.8834C18.4167 18.0857 15.6167 20.8857 12 21.3523ZM15.5 0.468994C14.8 0.468994 14.3334 0.935661 14.3334 1.63566V8.63566C14.3334 9.33566 14.8 9.80233 15.5 9.80233H22.5C23.2 9.80233 23.6667 9.33566 23.6667 8.63566C23.6667 4.08566 20.05 0.468994 15.5 0.468994ZM16.6667 7.46899V2.91899C19 3.38566 20.75 5.13566 21.2167 7.46899H16.6667Z" fill="white"/>
</svg>
