<svg width="24" height="24" viewBox="0 0 24 24" fill="none" xmlns="http://www.w3.org/2000/svg">
    <path d="M20.1667 7.39575H19V3.89575C19 2.96749 18.6313 2.07726 17.9749 1.42088C17.3185 0.764501 16.4283 0.395752 15.5 0.395752H3.83337C2.90512 0.395752 2.01488 0.764501 1.3585 1.42088C0.702123 2.07726 0.333374 2.96749 0.333374 3.89575V17.8958C0.334524 18.1261 0.403826 18.3509 0.532549 18.5419C0.661271 18.7329 0.843652 18.8816 1.05671 18.9691C1.19517 19.0344 1.347 19.0664 1.50004 19.0624C1.65358 19.0633 1.80579 19.0339 1.94793 18.9758C2.09008 18.9178 2.21936 18.8322 2.32837 18.7241L5.60671 15.4341H7.33337V17.1141C7.33337 18.0423 7.70212 18.9326 8.3585 19.589C9.01488 20.2453 9.90512 20.6141 10.8334 20.6141H18.9067L21.6717 23.3908C21.7807 23.4989 21.91 23.5844 22.0522 23.6425C22.1943 23.7005 22.3465 23.73 22.5 23.7291C22.6531 23.733 22.8049 23.7011 22.9434 23.6358C23.1564 23.5482 23.3388 23.3996 23.4675 23.2086C23.5963 23.0176 23.6656 22.7927 23.6667 22.5624V10.8958C23.6667 9.96749 23.298 9.07726 22.6416 8.42088C21.9852 7.7645 21.095 7.39575 20.1667 7.39575ZM7.33337 10.8958V13.1008H5.12837C4.97483 13.0999 4.82263 13.1293 4.68048 13.1874C4.53834 13.2454 4.40905 13.331 4.30004 13.4391L2.66671 15.0841V3.89575C2.66671 3.58633 2.78962 3.28959 3.00842 3.07079C3.22721 2.852 3.52396 2.72909 3.83337 2.72909H15.5C15.8095 2.72909 16.1062 2.852 16.325 3.07079C16.5438 3.28959 16.6667 3.58633 16.6667 3.89575V7.39575H10.8334C9.90512 7.39575 9.01488 7.7645 8.3585 8.42088C7.70212 9.07726 7.33337 9.96749 7.33337 10.8958ZM21.3334 19.7508L20.1667 18.5841C20.0587 18.4738 19.9298 18.3862 19.7876 18.3261C19.6454 18.266 19.4927 18.2347 19.3384 18.2341H10.8334C10.524 18.2341 10.2272 18.1112 10.0084 17.8924C9.78962 17.6736 9.66671 17.3768 9.66671 17.0674V10.8958C9.66671 10.5863 9.78962 10.2896 10.0084 10.0708C10.2272 9.852 10.524 9.72908 10.8334 9.72908H20.1667C20.4761 9.72908 20.7729 9.852 20.9917 10.0708C21.2105 10.2896 21.3334 10.5863 21.3334 10.8958V19.7508Z" fill="white"/>
</svg>
