<svg width="16" height="20" viewBox="0 0 16 20" fill="none" xmlns="http://www.w3.org/2000/svg">
    <path d="M5.08366 11.6668C4.62342 11.6668 4.25033 12.0399 4.25033 12.5002C4.25033 12.9604 4.62342 13.3335 5.08366 13.3335H10.917C11.3772 13.3335 11.7503 12.9604 11.7503 12.5002C11.7503 12.0399 11.3772 11.6668 10.917 11.6668H5.08366Z" fill="#89CFF0"/>
    <path d="M4.25033 15.0002C4.25033 14.5399 4.62342 14.1668 5.08366 14.1668H8.00033C8.46056 14.1668 8.83366 14.5399 8.83366 15.0002C8.83366 15.4604 8.46056 15.8335 8.00033 15.8335H5.08366C4.62342 15.8335 4.25033 15.4604 4.25033 15.0002Z" fill="#89CFF0"/>
    <path fill-rule="evenodd" clip-rule="evenodd" d="M5.08366 4.16683C4.62342 4.16683 4.25033 4.53993 4.25033 5.00016V9.16683C4.25033 9.62707 4.62342 10.0002 5.08366 10.0002H10.917C11.3772 10.0002 11.7503 9.62707 11.7503 9.16683V5.00016C11.7503 4.53993 11.3772 4.16683 10.917 4.16683H5.08366ZM5.91699 8.3335V5.8335H10.0837V8.3335H5.91699Z" fill="#89CFF0"/>
    <path fill-rule="evenodd" clip-rule="evenodd" d="M2.58366 0.833496C1.66318 0.833496 0.916992 1.57969 0.916992 2.50016V17.5002C0.916992 18.4207 1.66319 19.1668 2.58366 19.1668H14.2503C15.1708 19.1668 15.917 18.4206 15.917 17.5002V2.50016C15.917 1.5797 15.1708 0.833496 14.2503 0.833496H2.58366ZM2.58366 2.50016H14.2503V17.5002H2.58366V2.50016Z" fill="#89CFF0"/>
</svg>
