<svg width="37" height="37" viewBox="0 0 37 37" fill="none" xmlns="http://www.w3.org/2000/svg">
    <path d="M5.25 5C5.25 3.34315 6.59315 2 8.25 2H29.25C30.9069 2 32.25 3.34316 32.25 5V12.7983C32.25 13.6267 31.5784 14.2983 30.75 14.2983C29.9216 14.2983 29.25 13.6267 29.25 12.7983V5H8.25V32H15.75C16.5784 32 17.25 32.6716 17.25 33.5C17.25 34.3284 16.5784 35 15.75 35H8.25C6.59316 35 5.25 33.6569 5.25 32V5Z" fill="black" fill-opacity="0.65"/>
    <path d="M11.25 11C11.25 10.1716 11.9216 9.5 12.75 9.5H22.5C23.3284 9.5 24 10.1716 24 11C24 11.8284 23.3284 12.5 22.5 12.5H12.75C11.9216 12.5 11.25 11.8284 11.25 11Z" fill="black" fill-opacity="0.65"/>
    <path d="M12.75 14.75C11.9216 14.75 11.25 15.4216 11.25 16.25C11.25 17.0784 11.9216 17.75 12.75 17.75H16.5C17.3284 17.75 18 17.0784 18 16.25C18 15.4216 17.3284 14.75 16.5 14.75H12.75Z" fill="black" fill-opacity="0.65"/>
    <path fill-rule="evenodd" clip-rule="evenodd" d="M26.25 35C21.2795 35 17.25 30.9705 17.25 26C17.25 21.0295 21.2795 17 26.25 17C31.2205 17 35.25 21.0295 35.25 26C35.25 30.9705 31.2205 35 26.25 35ZM21.0807 22.9521C20.5529 23.8453 20.25 24.8873 20.25 26C20.25 29.3137 22.9363 32 26.25 32C27.3627 32 28.4047 31.6971 29.2979 31.1693L21.0807 22.9521ZM31.4193 29.0479C31.9471 28.1547 32.25 27.1127 32.25 26C32.25 22.6863 29.5637 20 26.25 20C25.1373 20 24.0953 20.3029 23.2021 20.8307L31.4193 29.0479Z" fill="black" fill-opacity="0.65"/>
    <path d="M31.4193 29.0479C31.9471 28.1547 32.25 27.1127 32.25 26C32.25 22.6863 29.5637 20 26.25 20C25.1373 20 24.0953 20.3029 23.2021 20.8307L31.4193 29.0479Z" fill="#FB7F73"/>
    <path d="M20.25 26C20.25 24.8873 20.5529 23.8453 21.0807 22.9521L29.2979 31.1693C28.4047 31.6971 27.3627 32 26.25 32C22.9363 32 20.25 29.3137 20.25 26Z" fill="#FB7F73"/>
</svg>
