<svg width="29" height="28" viewBox="0 0 29 28" fill="none" xmlns="http://www.w3.org/2000/svg">
    <path d="M20.8584 14.5367C22.2205 12.8596 22.8625 10.711 22.6439 8.56155C22.4252 6.41207 21.3637 4.43682 19.6917 3.06836C18.7338 2.30068 17.6171 1.75582 16.4225 1.47331C15.2279 1.1908 13.9854 1.17772 12.7851 1.43503C11.4374 1.73311 10.1873 2.36789 9.15142 3.28009C8.11558 4.19229 7.32783 5.35214 6.86176 6.65131C6.39569 7.95048 6.2665 9.34659 6.48626 10.7092C6.70601 12.0719 7.26754 13.3566 8.1184 14.4434C8.89385 15.3868 9.3367 16.5595 9.3784 17.78V18.1184C8.93447 18.5472 8.67857 19.1345 8.66673 19.7517V22.085C8.66673 22.7039 8.91256 23.2974 9.35015 23.7349C9.78773 24.1725 10.3812 24.4184 11.0001 24.4184V25.585C11.0001 25.8944 11.123 26.1912 11.3418 26.41C11.5606 26.6288 11.8573 26.7517 12.1667 26.7517C12.4761 26.7517 12.7729 26.6288 12.9917 26.41C13.2105 26.1912 13.3334 25.8944 13.3334 25.585V24.4184H15.6667V25.585C15.6667 25.8944 15.7896 26.1912 16.0084 26.41C16.2272 26.6288 16.524 26.7517 16.8334 26.7517C17.1428 26.7517 17.4396 26.6288 17.6584 26.41C17.8771 26.1912 18.0001 25.8944 18.0001 25.585V24.4184C18.6189 24.4184 19.2124 24.1725 19.65 23.7349C20.0876 23.2974 20.3334 22.7039 20.3334 22.085V19.7517C20.3339 19.1412 20.0952 18.5548 19.6684 18.1184V17.6167C19.7025 16.4844 20.1223 15.3977 20.8584 14.5367ZM11.0001 22.085V19.7517H18.0001V22.085H11.0001ZM19.0384 13.0784C18.0056 14.2965 17.4065 15.823 17.3351 17.4184H11.6534C11.5433 15.802 10.9316 14.2604 9.9034 13.0084C9.28578 12.2333 8.87582 11.3136 8.71221 10.3361C8.5486 9.35863 8.63673 8.35558 8.96829 7.42161C9.29985 6.48764 9.8639 5.65355 10.6072 4.99803C11.3505 4.34251 12.2486 3.88719 13.2167 3.67503C14.0745 3.48155 14.9648 3.48449 15.8213 3.6836C16.6777 3.88272 17.478 4.27287 18.1625 4.82489C18.8469 5.3769 19.3976 6.07649 19.7736 6.87135C20.1495 7.66621 20.3409 8.53578 20.3334 9.41503C20.3407 10.7496 19.8828 12.0449 19.0384 13.0784Z" fill="white"/>
</svg>
