<svg width="30" height="31" viewBox="0 0 30 31" fill="none" xmlns="http://www.w3.org/2000/svg">
    <path d="M25.4251 12.3892L7.92507 3.63924C7.23443 3.2955 6.45459 3.17312 5.69186 3.2888C4.92913 3.40448 4.22064 3.75257 3.66298 4.28563C3.10532 4.81869 2.72563 5.51076 2.57568 6.2675C2.42573 7.02423 2.51282 7.8088 2.82507 8.51423L5.82507 15.2267C5.89314 15.389 5.92819 15.5632 5.92819 15.7392C5.92819 15.9152 5.89314 16.0894 5.82507 16.2517L2.82507 22.9642C2.57094 23.5351 2.46351 24.1605 2.51254 24.7834C2.56156 25.4064 2.76549 26.0073 3.10579 26.5314C3.44609 27.0555 3.91197 27.4862 4.46109 27.7845C5.01022 28.0828 5.62517 28.2391 6.25007 28.2392C6.83535 28.2334 7.41193 28.0967 7.93756 27.8392L25.4376 19.0892C26.0583 18.777 26.5801 18.2984 26.9447 17.7068C27.3093 17.1153 27.5023 16.4341 27.5023 15.7392C27.5023 15.0444 27.3093 14.3632 26.9447 13.7716C26.5801 13.1801 26.0583 12.7015 25.4376 12.3892H25.4251ZM24.3126 16.8517L6.81256 25.6017C6.58277 25.7121 6.32473 25.7495 6.07305 25.709C5.82137 25.6686 5.58808 25.5521 5.40446 25.3753C5.22084 25.1985 5.09567 24.9697 5.04573 24.7198C4.99579 24.4698 5.02347 24.2105 5.12507 23.9767L8.11257 17.2642C8.15124 17.1746 8.18463 17.0828 8.21257 16.9892H16.8251C17.1566 16.9892 17.4745 16.8575 17.7089 16.6231C17.9434 16.3887 18.0751 16.0708 18.0751 15.7392C18.0751 15.4077 17.9434 15.0898 17.7089 14.8554C17.4745 14.6209 17.1566 14.4892 16.8251 14.4892H8.21257C8.18463 14.3957 8.15124 14.3039 8.11257 14.2142L5.12507 7.50173C5.02347 7.26794 4.99579 7.00867 5.04573 6.7587C5.09567 6.50872 5.22084 6.27999 5.40446 6.10317C5.58808 5.92635 5.82137 5.8099 6.07305 5.76943C6.32473 5.72895 6.58277 5.7664 6.81256 5.87674L24.3126 14.6267C24.5173 14.7316 24.6891 14.891 24.8091 15.0873C24.9291 15.2836 24.9926 15.5092 24.9926 15.7392C24.9926 15.9693 24.9291 16.1949 24.8091 16.3912C24.6891 16.5875 24.5173 16.7468 24.3126 16.8517Z" fill="white"/>
</svg>
