<svg width="37" height="37" viewBox="0 0 37 37" fill="none" xmlns="http://www.w3.org/2000/svg">
    <path d="M32.7788 15.2625L29.9438 14.3175L31.2788 11.6475C31.4142 11.368 31.4594 11.0535 31.4084 10.7472C31.3573 10.4409 31.2125 10.158 30.9938 9.9375L27.7988 6.7425C27.5772 6.52063 27.2916 6.37382 26.9822 6.32269C26.6727 6.27157 26.3551 6.31872 26.0738 6.45751L23.4038 7.79251L22.4588 4.95751C22.359 4.66199 22.1696 4.40494 21.9169 4.22213C21.6642 4.03931 21.3607 3.93982 21.0488 3.93751H16.5488C16.2344 3.93669 15.9276 4.03473 15.6719 4.21777C15.4162 4.4008 15.2245 4.65957 15.1238 4.95751L14.1788 7.79251L11.5088 6.45751C11.2294 6.32217 10.9148 6.27691 10.6085 6.32796C10.3022 6.37901 10.0193 6.52385 9.79883 6.7425L6.60383 9.9375C6.38196 10.1592 6.23514 10.4448 6.18402 10.7542C6.1329 11.0636 6.18005 11.3813 6.31883 11.6625L7.65383 14.3325L4.81883 15.2775C4.52332 15.3773 4.26627 15.5667 4.08346 15.8195C3.90064 16.0722 3.80115 16.3756 3.79883 16.6875V21.1875C3.79802 21.502 3.89606 21.8087 4.0791 22.0644C4.26213 22.3202 4.5209 22.5119 4.81883 22.6125L7.65383 23.5575L6.31883 26.2275C6.1835 26.507 6.13824 26.8216 6.18929 27.1278C6.24033 27.4341 6.38518 27.717 6.60383 27.9375L9.79883 31.1325C10.0205 31.3544 10.3061 31.5012 10.6155 31.5523C10.9249 31.6034 11.2426 31.5563 11.5238 31.4175L14.1938 30.0825L15.1388 32.9175C15.2395 33.2154 15.4312 33.4742 15.6869 33.6572C15.9426 33.8403 16.2494 33.9383 16.5638 33.9375H21.0638C21.3783 33.9383 21.6851 33.8403 21.9408 33.6572C22.1965 33.4742 22.3882 33.2154 22.4888 32.9175L23.4338 30.0825L26.1038 31.4175C26.3815 31.5494 26.693 31.5928 26.9962 31.5419C27.2994 31.4909 27.5796 31.348 27.7988 31.1325L30.9938 27.9375C31.2157 27.7159 31.3625 27.4302 31.4136 27.1208C31.4648 26.8114 31.4176 26.4937 31.2788 26.2125L29.9438 23.5425L32.7788 22.5975C33.0743 22.4977 33.3314 22.3083 33.5142 22.0555C33.697 21.8028 33.7965 21.4994 33.7988 21.1875V16.6875C33.7996 16.373 33.7016 16.0663 33.5186 15.8106C33.3355 15.5549 33.0768 15.3631 32.7788 15.2625ZM30.7988 20.1075L28.9988 20.7075C28.5849 20.8418 28.2052 21.0645 27.8859 21.3602C27.5667 21.6558 27.3156 22.0174 27.15 22.4199C26.9845 22.8223 26.9085 23.2559 26.9273 23.6907C26.9461 24.1254 27.0592 24.5509 27.2588 24.9375L28.1138 26.6475L26.4638 28.2975L24.7988 27.3975C24.4142 27.2059 23.9928 27.0991 23.5633 27.0844C23.1338 27.0698 22.7061 27.1476 22.3093 27.3126C21.9125 27.4776 21.5557 27.7259 21.2632 28.0408C20.9707 28.3556 20.7492 28.7296 20.6138 29.1375L20.0138 30.9375H17.6288L17.0288 29.1375C16.8946 28.7236 16.6719 28.3438 16.3762 28.0246C16.0805 27.7053 15.7189 27.4542 15.3165 27.2887C14.914 27.1232 14.4804 27.0471 14.0457 27.0659C13.6109 27.0847 13.1855 27.1979 12.7988 27.3975L11.0888 28.2525L9.43883 26.6025L10.3388 24.9375C10.5385 24.5509 10.6516 24.1254 10.6704 23.6907C10.6892 23.2559 10.6132 22.8223 10.4476 22.4199C10.2821 22.0174 10.031 21.6558 9.71175 21.3602C9.3925 21.0645 9.01275 20.8418 8.59883 20.7075L6.79883 20.1075V17.7675L8.59883 17.1675C9.01275 17.0332 9.3925 16.8105 9.71175 16.5149C10.031 16.2192 10.2821 15.8576 10.4476 15.4551C10.6132 15.0527 10.6892 14.6191 10.6704 14.1843C10.6516 13.7496 10.5385 13.3242 10.3388 12.9375L9.48383 11.2725L11.1338 9.62251L12.7988 10.4775C13.1855 10.6771 13.6109 10.7903 14.0457 10.8091C14.4804 10.8279 14.914 10.7519 15.3165 10.5863C15.7189 10.4208 16.0805 10.1697 16.3762 9.85042C16.6719 9.53117 16.8946 9.15142 17.0288 8.7375L17.6288 6.93751H19.9688L20.5688 8.7375C20.7031 9.15142 20.9258 9.53117 21.2215 9.85042C21.5172 10.1697 21.8788 10.4208 22.2812 10.5863C22.6836 10.7519 23.1173 10.8279 23.552 10.8091C23.9867 10.7903 24.4122 10.6771 24.7988 10.4775L26.5088 9.62251L28.1588 11.2725L27.2588 12.9375C27.0672 13.3222 26.9604 13.7435 26.9458 14.173C26.9311 14.6026 27.0089 15.0302 27.1739 15.427C27.3389 15.8239 27.5872 16.1806 27.9021 16.4731C28.2169 16.7656 28.591 16.9871 28.9988 17.1225L30.7988 17.7225V20.1075ZM18.7988 12.9375C17.6121 12.9375 16.4521 13.2894 15.4654 13.9487C14.4787 14.608 13.7097 15.545 13.2556 16.6414C12.8014 17.7378 12.6826 18.9442 12.9141 20.108C13.1456 21.2719 13.7171 22.341 14.5562 23.1801C15.3953 24.0193 16.4644 24.5907 17.6283 24.8222C18.7922 25.0537 19.9986 24.9349 21.0949 24.4808C22.1913 24.0267 23.1284 23.2576 23.7876 22.2709C24.4469 21.2842 24.7988 20.1242 24.7988 18.9375C24.7988 17.3462 24.1667 15.8201 23.0415 14.6949C21.9163 13.5696 20.3901 12.9375 18.7988 12.9375ZM18.7988 21.9375C18.2055 21.9375 17.6255 21.7616 17.1321 21.4319C16.6388 21.1023 16.2543 20.6337 16.0272 20.0856C15.8001 19.5374 15.7407 18.9342 15.8565 18.3522C15.9722 17.7703 16.258 17.2357 16.6775 16.8162C17.0971 16.3966 17.6316 16.1109 18.2136 15.9951C18.7955 15.8794 19.3987 15.9388 19.9469 16.1659C20.4951 16.3929 20.9636 16.7774 21.2932 17.2708C21.6229 17.7641 21.7988 18.3442 21.7988 18.9375C21.7988 19.7332 21.4828 20.4962 20.9202 21.0588C20.3575 21.6214 19.5945 21.9375 18.7988 21.9375Z" fill="#89CFF0"/>
</svg>
