<svg width="37" height="37" viewBox="0 0 37 37" fill="none" xmlns="http://www.w3.org/2000/svg">
    <path d="M28.8633 18.9375H18.3633V8.4375C18.3633 7.5375 17.7633 6.9375 16.8633 6.9375C9.36328 6.9375 3.36328 12.9375 3.36328 20.4375C3.36328 27.9375 9.36328 33.9375 16.8633 33.9375C24.3633 33.9375 30.3633 27.9375 30.3633 20.4375C30.3633 19.5375 29.7633 18.9375 28.8633 18.9375ZM18.3633 30.7875C12.6633 31.6875 7.26328 27.6375 6.51328 21.9375C5.61328 16.2375 9.66328 10.8375 15.3633 10.0875V20.4375C15.3633 21.3375 15.9633 21.9375 16.8633 21.9375H27.2133C26.6133 26.5875 23.0133 30.1875 18.3633 30.7875ZM22.8633 3.9375C21.9633 3.9375 21.3633 4.5375 21.3633 5.4375V14.4375C21.3633 15.3375 21.9633 15.9375 22.8633 15.9375H31.8633C32.7633 15.9375 33.3633 15.3375 33.3633 14.4375C33.3633 8.5875 28.7133 3.9375 22.8633 3.9375ZM24.3633 12.9375V7.0875C27.3633 7.6875 29.6133 9.9375 30.2133 12.9375H24.3633Z" fill="#89CFF0"/>
</svg>
