<svg width="31" height="31" viewBox="0 0 31 31" fill="none" xmlns="http://www.w3.org/2000/svg">
    <path d="M15.3262 14.4375C14.4362 14.4375 13.5661 14.7014 12.8261 15.1959C12.0861 15.6904 11.5093 16.3932 11.1687 17.2154C10.8281 18.0377 10.739 18.9425 10.9126 19.8154C11.0863 20.6883 11.5149 21.4901 12.1442 22.1195C12.7735 22.7488 13.5754 23.1774 14.4483 23.351C15.3212 23.5247 16.226 23.4356 17.0482 23.095C17.8705 22.7544 18.5733 22.1776 19.0678 21.4376C19.5623 20.6975 19.8262 19.8275 19.8262 18.9375C19.8262 17.744 19.3521 16.5994 18.5082 15.7555C17.6642 14.9116 16.5196 14.4375 15.3262 14.4375ZM15.3262 20.4375C15.0295 20.4375 14.7395 20.3495 14.4928 20.1847C14.2461 20.0199 14.0539 19.7856 13.9404 19.5115C13.8268 19.2374 13.7971 18.9358 13.855 18.6449C13.9129 18.3539 14.0557 18.0866 14.2655 17.8768C14.4753 17.6671 14.7426 17.5242 15.0335 17.4663C15.3245 17.4084 15.6261 17.4381 15.9002 17.5517C16.1743 17.6652 16.4086 17.8575 16.5734 18.1041C16.7382 18.3508 16.8262 18.6408 16.8262 18.9375C16.8262 19.3353 16.6681 19.7169 16.3868 19.9982C16.1055 20.2795 15.724 20.4375 15.3262 20.4375ZM25.8262 6.9375H21.3262V5.4375C21.3262 4.24403 20.8521 3.09943 20.0082 2.25552C19.1642 1.41161 18.0196 0.9375 16.8262 0.9375H13.8262C12.6327 0.9375 11.4881 1.41161 10.6442 2.25552C9.80028 3.09943 9.32617 4.24403 9.32617 5.4375V6.9375H4.82617C3.6327 6.9375 2.48811 7.41161 1.64419 8.25552C0.800278 9.09943 0.326172 10.244 0.326172 11.4375V26.4375C0.326172 27.631 0.800278 28.7756 1.64419 29.6195C2.48811 30.4634 3.6327 30.9375 4.82617 30.9375H25.8262C27.0196 30.9375 28.1642 30.4634 29.0082 29.6195C29.8521 28.7756 30.3262 27.631 30.3262 26.4375V11.4375C30.3262 10.244 29.8521 9.09943 29.0082 8.25552C28.1642 7.41161 27.0196 6.9375 25.8262 6.9375ZM12.3262 5.4375C12.3262 5.03968 12.4842 4.65814 12.7655 4.37684C13.0468 4.09554 13.4283 3.9375 13.8262 3.9375H16.8262C17.224 3.9375 17.6055 4.09554 17.8868 4.37684C18.1681 4.65814 18.3262 5.03968 18.3262 5.4375V6.9375H12.3262V5.4375ZM3.32617 11.4375C3.32617 11.0397 3.48421 10.6581 3.76551 10.3768C4.04682 10.0955 4.42835 9.9375 4.82617 9.9375H6.32617C6.32617 10.7331 6.0101 11.4962 5.44749 12.0588C4.88488 12.6214 4.12182 12.9375 3.32617 12.9375V11.4375ZM4.82617 27.9375C4.42835 27.9375 4.04682 27.7795 3.76551 27.4982C3.48421 27.2169 3.32617 26.8353 3.32617 26.4375V24.9375C4.12182 24.9375 4.88488 25.2536 5.44749 25.8162C6.0101 26.3788 6.32617 27.1419 6.32617 27.9375H4.82617ZM27.3262 26.4375C27.3262 26.8353 27.1681 27.2169 26.8868 27.4982C26.6055 27.7795 26.224 27.9375 25.8262 27.9375H24.3262C24.3262 27.1419 24.6422 26.3788 25.2049 25.8162C25.7675 25.2536 26.5305 24.9375 27.3262 24.9375V26.4375ZM27.3262 21.9375C25.7349 21.9375 24.2087 22.5696 23.0835 23.6949C21.9583 24.8201 21.3262 26.3462 21.3262 27.9375H9.32617C9.32617 26.3462 8.69403 24.8201 7.56881 23.6949C6.44359 22.5696 4.91747 21.9375 3.32617 21.9375V15.9375C4.91747 15.9375 6.44359 15.3054 7.56881 14.1801C8.69403 13.0549 9.32617 11.5288 9.32617 9.9375H21.3262C21.3262 11.5288 21.9583 13.0549 23.0835 14.1801C24.2087 15.3054 25.7349 15.9375 27.3262 15.9375V21.9375ZM27.3262 12.9375C26.5305 12.9375 25.7675 12.6214 25.2049 12.0588C24.6422 11.4962 24.3262 10.7331 24.3262 9.9375H25.8262C26.224 9.9375 26.6055 10.0955 26.8868 10.3768C27.1681 10.6581 27.3262 11.0397 27.3262 11.4375V12.9375Z" fill="#fff"/>
</svg>
