<svg width="37" height="37" viewBox="0 0 37 37" fill="none" xmlns="http://www.w3.org/2000/svg">
    <path d="M23.9627 20.0024C25.4333 18.8454 26.5067 17.2588 27.0336 15.4634C27.5604 13.6679 27.5146 11.7528 26.9024 9.98464C26.2902 8.21645 25.1421 6.68303 23.6178 5.59773C22.0935 4.51242 20.2689 3.9292 18.3977 3.9292C16.5265 3.9292 14.7019 4.51242 13.1776 5.59773C11.6533 6.68303 10.5052 8.21645 9.89302 9.98464C9.28082 11.7528 9.23497 13.6679 9.76184 15.4634C10.2887 17.2588 11.3621 18.8454 12.8327 20.0024C10.3128 21.012 8.11413 22.6865 6.47104 24.8473C4.82795 27.0082 3.80204 29.5744 3.5027 32.2724C3.48103 32.4694 3.49837 32.6687 3.55374 32.859C3.6091 33.0493 3.7014 33.2268 3.82537 33.3814C4.07573 33.6937 4.43988 33.8937 4.8377 33.9374C5.23553 33.9812 5.63444 33.8651 5.94669 33.6148C6.25894 33.3644 6.45894 33.0003 6.5027 32.6024C6.83208 29.6702 8.23023 26.9622 10.43 24.9956C12.6298 23.0291 15.477 21.942 18.4277 21.942C21.3784 21.942 24.2256 23.0291 26.4254 24.9956C28.6252 26.9622 30.0233 29.6702 30.3527 32.6024C30.3935 32.971 30.5694 33.3114 30.8464 33.558C31.1234 33.8045 31.4819 33.9397 31.8527 33.9374H32.0177C32.4109 33.8922 32.7703 33.6934 33.0175 33.3843C33.2648 33.0752 33.3799 32.681 33.3377 32.2874C33.0369 29.5817 32.0055 27.0089 30.354 24.8447C28.7024 22.6806 26.4931 21.0067 23.9627 20.0024ZM18.3977 18.9374C17.211 18.9374 16.051 18.5855 15.0643 17.9263C14.0776 17.267 13.3085 16.3299 12.8544 15.2335C12.4003 14.1372 12.2815 12.9308 12.513 11.7669C12.7445 10.603 13.3159 9.53392 14.1551 8.6948C14.9942 7.85569 16.0633 7.28424 17.2272 7.05273C18.391 6.82122 19.5974 6.94004 20.6938 7.39417C21.7902 7.84829 22.7272 8.61733 23.3865 9.60402C24.0458 10.5907 24.3977 11.7508 24.3977 12.9374C24.3977 14.5287 23.7656 16.0549 22.6403 17.1801C21.5151 18.3053 19.989 18.9374 18.3977 18.9374Z" fill="#89CFF0"/>
</svg>
