<svg width="15" height="17" viewBox="0 0 15 17" fill="none" xmlns="http://www.w3.org/2000/svg">
    <path d="M4.375 10C3.96079 10 3.625 10.3358 3.625 10.75C3.625 11.1642 3.96079 11.5 4.375 11.5H9.625C10.0392 11.5 10.375 11.1642 10.375 10.75C10.375 10.3358 10.0392 10 9.625 10H4.375Z" fill="#89CFF0"/>
    <path d="M3.625 13C3.625 12.5858 3.96079 12.25 4.375 12.25H7C7.41421 12.25 7.75 12.5858 7.75 13C7.75 13.4142 7.41421 13.75 7 13.75H4.375C3.96079 13.75 3.625 13.4142 3.625 13Z" fill="#89CFF0"/>
    <path fill-rule="evenodd" clip-rule="evenodd" d="M4.375 3.25C3.96079 3.25 3.625 3.58579 3.625 4V7.75C3.625 8.16421 3.96079 8.5 4.375 8.5H9.625C10.0392 8.5 10.375 8.16421 10.375 7.75V4C10.375 3.58579 10.0392 3.25 9.625 3.25H4.375ZM5.125 7V4.75H8.875V7H5.125Z" fill="#89CFF0"/>
    <path fill-rule="evenodd" clip-rule="evenodd" d="M2.125 0.25C1.29657 0.25 0.625 0.921573 0.625 1.75V15.25C0.625 16.0784 1.29658 16.75 2.125 16.75H12.625C13.4534 16.75 14.125 16.0784 14.125 15.25V1.75C14.125 0.92158 13.4534 0.25 12.625 0.25H2.125ZM2.125 1.75H12.625V15.25H2.125V1.75Z" fill="#89CFF0"/>
</svg>
