<svg width="64" height="65" viewBox="0 0 64 65" fill="none" xmlns="http://www.w3.org/2000/svg">
    <path fill-rule="evenodd" clip-rule="evenodd" d="M11.2583 11.6222C16.5637 6.31681 23.9007 3.03064 32.0001 3.03064C40.0995 3.03064 47.4364 6.31681 52.7418 11.6222C58.0472 16.9276 61.3334 24.2646 61.3334 32.364C61.3334 40.4634 58.0472 47.8003 52.7418 53.1057C47.4365 58.4111 40.0995 61.6973 32.0001 61.6973C23.9007 61.6973 16.5637 58.4111 11.2583 53.1057C5.95294 47.8004 2.66675 40.4634 2.66675 32.364C2.66675 24.2646 5.95295 16.9276 11.2583 11.6222ZM32.0001 8.36397C25.372 8.36397 19.3756 11.0473 15.0295 15.3934C10.6834 19.7396 8.00008 25.7359 8.00008 32.364C8.00008 38.9921 10.6835 44.9884 15.0295 49.3345C19.3757 53.6806 25.372 56.364 32.0001 56.364C38.6282 56.364 44.6245 53.6806 48.9706 49.3345C53.3167 44.9884 56.0001 38.9921 56.0001 32.364C56.0001 25.7359 53.3167 19.7395 48.9706 15.3934C44.6245 11.0473 38.6282 8.36397 32.0001 8.36397ZM47.219 22.4784C48.2604 23.5198 48.2604 25.2082 47.219 26.2496L31.219 42.2496C30.1776 43.291 28.4892 43.291 27.4478 42.2496L19.4478 34.2496C18.4064 33.2082 18.4064 31.5198 19.4478 30.4784C20.4892 29.437 22.1776 29.437 23.219 30.4784L29.3334 36.5927L43.4478 22.4784C44.4892 21.437 46.1776 21.437 47.219 22.4784Z" fill="black" fill-opacity="0.65"/>
    <path fill-rule="evenodd" clip-rule="evenodd" d="M15.0294 15.3934C19.3756 11.0473 25.3719 8.36395 32 8.36395C38.6281 8.36395 44.6244 11.0473 48.9705 15.3934C53.3166 19.7395 56 25.7359 56 32.364C56 38.992 53.3166 44.9884 48.9705 49.3345C44.6244 53.6806 38.6281 56.364 32 56.364C25.3719 56.364 19.3756 53.6806 15.0294 49.3345C10.6834 44.9884 8 38.992 8 32.364C8 25.7359 10.6833 19.7395 15.0294 15.3934ZM47.219 22.4783C48.2604 23.5197 48.2604 25.2082 47.219 26.2496L31.219 42.2496C30.1776 43.291 28.4891 43.291 27.4477 42.2496L19.4477 34.2496C18.4063 33.2082 18.4063 31.5197 19.4477 30.4783C20.4891 29.4369 22.1776 29.4369 23.219 30.4783L29.3333 36.5927L43.4477 22.4783C44.4891 21.4369 46.1776 21.4369 47.219 22.4783Z" fill="#89CFF0"/>
</svg>
