<svg width="36" height="36" viewBox="0 0 36 36" fill="none" xmlns="http://www.w3.org/2000/svg">
    <path fill-rule="evenodd" clip-rule="evenodd" d="M7.5 3C7.5 2.17157 8.17157 1.5 9 1.5H27C27.8284 1.5 28.5 2.17157 28.5 3V6.75H33C33.8284 6.75 34.5 7.42157 34.5 8.25C34.5 13.5609 31.4121 16.8128 27.76 17.209C26.3985 20.7192 23.2858 23.3396 19.4962 23.892C19.4987 23.9277 19.5 23.9637 19.5 24V25.5H21.7819C22.286 25.5 22.7565 25.7533 23.034 26.1741L26.0022 30.6741C26.306 31.1348 26.3324 31.7251 26.0708 32.211C25.8092 32.697 25.3019 33 24.75 33H11.25C10.7067 33 10.2058 32.7062 9.94067 32.2319C9.67556 31.7576 9.68766 31.177 9.9723 30.7142L12.7398 26.2142C13.0128 25.7704 13.4965 25.5 14.0175 25.5H16.5V24C16.5 23.9637 16.5013 23.9277 16.5038 23.892C12.7142 23.3396 9.60151 20.7192 8.23999 17.209C4.58789 16.8128 1.5 13.5609 1.5 8.25C1.5 7.42157 2.17157 6.75 3 6.75H7.5V3ZM10.5 13.2353C10.5 17.5649 13.8986 21 18 21C22.1014 21 25.5 17.5649 25.5 13.2353V4.5H10.5V13.2353ZM7.5 9.75H4.61033C4.97375 12.0823 6.18534 13.398 7.5 13.9453V9.75ZM14.856 28.5L13.9335 30H21.9637L20.9744 28.5H14.856ZM28.5 13.9453C29.8147 13.398 31.0262 12.0823 31.3897 9.75H28.5V13.9453Z" fill="black" fill-opacity="0.65"/>
    <path d="M18 21C13.8986 21 10.5 17.5649 10.5 13.2353V4.5H25.5V13.2353C25.5 17.5649 22.1014 21 18 21Z" fill="#89CFF0"/>
    <path d="M13.9335 30L14.856 28.5H20.9744L21.9637 30H13.9335Z" fill="#89CFF0"/>
</svg>
