<svg width="28" height="29" viewBox="0 0 28 29" fill="none" xmlns="http://www.w3.org/2000/svg">
    <path d="M26.8334 24.7089V22.3756C26.8326 21.3416 26.4885 20.3372 25.855 19.52C25.2215 18.7028 24.3345 18.1191 23.3334 17.8606" stroke="white" stroke-width="2" stroke-linecap="round" stroke-linejoin="round"/>
    <path d="M19.8333 24.709V22.3757C19.8333 21.138 19.3416 19.951 18.4665 19.0758C17.5913 18.2007 16.4043 17.709 15.1666 17.709H5.83329C4.59562 17.709 3.40863 18.2007 2.53346 19.0758C1.65829 19.951 1.16663 21.138 1.16663 22.3757V24.709" stroke="white" stroke-width="2" stroke-linecap="round" stroke-linejoin="round"/>
    <path d="M18.6666 3.8606C19.6704 4.11761 20.5602 4.70141 21.1955 5.51996C21.8309 6.3385 22.1758 7.34523 22.1758 8.38143C22.1758 9.41763 21.8309 10.4244 21.1955 11.2429C20.5602 12.0614 19.6704 12.6452 18.6666 12.9023" stroke="white" stroke-width="2" stroke-linecap="round" stroke-linejoin="round"/>
    <path d="M10.5 13.0423C13.0774 13.0423 15.1667 10.953 15.1667 8.37565C15.1667 5.79832 13.0774 3.70898 10.5 3.70898C7.92271 3.70898 5.83337 5.79832 5.83337 8.37565C5.83337 10.953 7.92271 13.0423 10.5 13.0423Z" stroke="white" stroke-width="2" stroke-linecap="round" stroke-linejoin="round"/>
</svg>
