<svg width="37" height="37" viewBox="0 0 37 37" fill="none" xmlns="http://www.w3.org/2000/svg">
    <path fill-rule="evenodd" clip-rule="evenodd" d="M18.5 1.86395C19.3284 1.86395 20 2.53553 20 3.36395V9.36395C20 10.1924 19.3284 10.864 18.5 10.864C17.6716 10.864 17 10.1924 17 9.36395V3.36395C17 2.53553 17.6716 1.86395 18.5 1.86395ZM6.83271 6.6967C7.41849 6.11091 8.36824 6.11091 8.95403 6.69669L13.1967 10.9393C13.7825 11.5251 13.7825 12.4748 13.1967 13.0606C12.6109 13.6464 11.6612 13.6464 11.0754 13.0606L6.83272 8.81802C6.24693 8.23224 6.24692 7.28249 6.83271 6.6967ZM30.1672 6.69675C30.753 7.28253 30.753 8.23228 30.1672 8.81807L25.9246 13.0607C25.3389 13.6465 24.3891 13.6465 23.8033 13.0607C23.2175 12.4749 23.2175 11.5252 23.8033 10.9394L28.0459 6.69676C28.6317 6.11097 29.5814 6.11097 30.1672 6.69675ZM15.9393 15.8033C16.294 15.4487 16.8024 15.2947 17.2942 15.3931L32.2942 18.3931C32.8891 18.5121 33.3537 18.9777 33.4715 19.5729C33.5892 20.168 33.3368 20.7755 32.8321 21.112L29.8545 23.0971L33.0607 26.3033C33.6464 26.8891 33.6464 27.8388 33.0607 28.4246L28.5607 32.9246C27.9749 33.5104 27.0251 33.5104 26.4393 32.9246L23.2331 29.7184L21.2481 32.696C20.9115 33.2008 20.3041 33.4532 19.7089 33.3354C19.1137 33.2177 18.6481 32.753 18.5291 32.1581L15.5291 17.1581C15.4308 16.6663 15.5847 16.1579 15.9393 15.8033ZM18.9121 18.7761L20.7607 28.0188L21.7519 26.5319C22.0012 26.158 22.405 25.9155 22.8522 25.8713C23.2994 25.827 23.7429 25.9855 24.0607 26.3033L27.5 29.7426L29.8787 27.364L26.4393 23.9246C26.1216 23.6068 25.963 23.1633 26.0073 22.7161C26.0516 22.2689 26.294 21.8652 26.668 21.6159L28.1548 20.6246L18.9121 18.7761ZM2 18.364C2 17.5355 2.67157 16.864 3.5 16.864H9.5C10.3284 16.864 11 17.5355 11 18.364C11 19.1924 10.3284 19.864 9.5 19.864H3.5C2.67157 19.864 2 19.1924 2 18.364ZM13.1967 23.6672C13.7825 24.253 13.7825 25.2027 13.1967 25.7885L8.95407 30.0312C8.36829 30.617 7.41854 30.617 6.83275 30.0312C6.24696 29.4454 6.24695 28.4957 6.83274 27.9099L11.0754 23.6672C11.6611 23.0814 12.6109 23.0814 13.1967 23.6672Z" fill="black" fill-opacity="0.65"/>
    <path d="M20.7605 28.019L18.912 18.7763L28.1547 20.6248L26.6678 21.6161C26.2939 21.8654 26.0514 22.2692 26.0072 22.7164C25.9629 23.1636 26.1214 23.6071 26.4392 23.9248L29.8785 27.3642L27.4999 29.7429L24.0605 26.3035C23.7427 25.9857 23.2993 25.8272 22.852 25.8715C22.4048 25.9158 22.0011 26.1582 21.7518 26.5321L20.7605 28.019Z" fill="#89CFF0"/>
</svg>
