<svg width="25" height="24" viewBox="0 0 25 24" fill="none" xmlns="http://www.w3.org/2000/svg">
    <path d="M15.7578 13.0015C15.8536 13.002 15.9467 13.0027 16.0372 13.0036L16.5505 13.0117L17.0083 13.0257L17.4167 13.0468C18.3809 13.1093 18.939 13.2489 19.5199 13.5449C20.4608 14.0243 21.2257 14.7892 21.7051 15.7301L21.7539 15.8281L21.8428 16.0215L21.9205 16.2155C21.9325 16.2482 21.9442 16.2811 21.9554 16.3143L22.0178 16.5185C22.0274 16.5535 22.0366 16.589 22.0454 16.6251L22.0941 16.8507C22.1016 16.8899 22.1086 16.9299 22.1154 16.9709L22.152 17.229L22.1815 17.5151L22.2046 17.8342L22.2221 18.1911L22.2392 18.8085L22.249 19.8109L22.25 21C22.25 21.5523 21.8023 22 21.25 22H3.25C2.69759 22 2.25 21.5521 2.25 20.9997L2.25038 19.7877L2.2536 19.2128L2.26165 18.6995L2.27567 18.2417L2.29677 17.8333C2.35933 16.8691 2.49894 16.311 2.79497 15.7301C3.27433 14.7892 4.03925 14.0243 4.98008 13.5449C5.59979 13.2292 6.1934 13.0914 7.2817 13.0353L7.71401 13.0178L8.1988 13.007L8.74218 13.0015H15.7578ZM15.7233 15.0013H8.77843L8.08083 15.0096L7.5075 15.0276L7.18561 15.0458L6.9059 15.0698L6.66315 15.0999L6.45213 15.1368C6.32086 15.1637 6.20727 15.1956 6.10439 15.233L5.95723 15.2934L5.88804 15.327C5.32356 15.6146 4.86461 16.0735 4.57698 16.638C4.55387 16.6834 4.53228 16.7301 4.51215 16.7791L4.45598 16.9337C4.42998 17.0152 4.40702 17.1037 4.38679 17.2021L4.34991 17.413L4.31977 17.6557L4.29585 17.9353L4.27041 18.4353L4.25587 19.0476L4.25 20H20.249L20.246 19.3632L20.2401 18.9152L20.225 18.3464L20.21 18.0282L20.1906 17.7528L20.1661 17.5146L20.1362 17.3084L20.1002 17.1288C20.0937 17.1008 20.087 17.0737 20.0799 17.0473L20.0341 16.8977L19.9811 16.7614L19.923 16.638C19.6354 16.0736 19.1764 15.6146 18.612 15.327C18.5666 15.3039 18.5199 15.2823 18.4709 15.2621L18.3164 15.206C18.2349 15.18 18.1464 15.157 18.0479 15.1368L17.837 15.0999L17.5943 15.0698L17.3148 15.0458L16.8149 15.0204L16.2026 15.0059L15.7233 15.0013ZM12.25 2C14.7353 2 16.75 4.01472 16.75 6.5C16.75 8.98528 14.7353 11 12.25 11C9.76472 11 7.75 8.98528 7.75 6.5C7.75 4.01472 9.76472 2 12.25 2ZM12.25 4C10.8693 4 9.75 5.11929 9.75 6.5C9.75 7.88072 10.8693 9 12.25 9C13.6307 9 14.75 7.88072 14.75 6.5C14.75 5.11929 13.6307 4 12.25 4Z" fill="black" fill-opacity="0.65"/>
    <path d="M12.25 4C10.8693 4 9.75 5.11929 9.75 6.5C9.75 7.88072 10.8693 9 12.25 9C13.6307 9 14.75 7.88072 14.75 6.5C14.75 5.11929 13.6307 4 12.25 4Z" fill="#91D5FF"/>
    <path d="M15.7233 15.0013H8.77843L8.08083 15.0096L7.5075 15.0276L7.18561 15.0458L6.9059 15.0698L6.66315 15.0999L6.45213 15.1368C6.32086 15.1637 6.20727 15.1956 6.10439 15.233L5.95723 15.2934L5.88804 15.327C5.32356 15.6146 4.86461 16.0735 4.57698 16.638C4.55387 16.6834 4.53229 16.7301 4.51215 16.7791L4.45598 16.9337C4.42998 17.0152 4.40702 17.1037 4.38679 17.2021L4.34991 17.413L4.31977 17.6557L4.29585 17.9353L4.27041 18.4353L4.25587 19.0476L4.25 20H20.249L20.246 19.3632L20.2401 18.9152L20.225 18.3464L20.21 18.0282L20.1906 17.7528L20.1661 17.5146L20.1362 17.3084L20.1002 17.1288C20.0937 17.1008 20.087 17.0737 20.0799 17.0473L20.0341 16.8977L19.9811 16.7614L19.923 16.638C19.6354 16.0736 19.1764 15.6146 18.612 15.327C18.5666 15.3039 18.5199 15.2823 18.4709 15.2621L18.3164 15.206C18.2349 15.18 18.1464 15.157 18.0479 15.1368L17.837 15.0999L17.5943 15.0698L17.3148 15.0458L16.8149 15.0204L16.2026 15.0059L15.7233 15.0013Z" fill="#91D5FF"/>
</svg>
