<svg width="64" height="65" viewBox="0 0 64 65" fill="none" xmlns="http://www.w3.org/2000/svg">
    <circle cx="32" cy="32.5" r="32" fill="#3C64B1"/>
    <path d="M30.7972 25.6823L26.9487 23.5784C26.6545 23.4176 26.3246 23.3333 25.9893 23.3333H23.6621C23.1317 23.3333 22.6229 23.544 22.2479 23.9191L19.7528 26.4142C19.3777 26.7893 19.167 27.298 19.167 27.8284L19.167 38.7629C19.167 39.4317 19.5012 40.0561 20.0576 40.427L28.9309 46.3426C29.6648 46.8319 30.6326 46.7826 31.313 46.2214L40.3076 38.8021" stroke="white"/>
    <path fill-rule="evenodd" clip-rule="evenodd" d="M35.6202 32.9975C35.0168 32.1895 33.9063 31.9572 33.0296 32.4554L27.8246 35.4137C27.0419 35.8585 26.0586 35.7256 25.4221 35.0891L24.3816 34.0486C23.55 33.217 23.612 31.8508 24.5155 31.0979L33.2767 23.7969C33.6362 23.4973 34.0892 23.3333 34.5571 23.3333H37.0275C37.338 23.3333 37.6443 23.4056 37.922 23.5445L43.7274 26.4472C44.405 26.786 44.833 27.4785 44.833 28.236L44.833 39.3129C44.833 41.237 42.3819 42.0513 41.2306 40.5097L35.6202 32.9975Z" stroke="white"/>
    <path d="M11.8333 41.6667V25.1667" stroke="white" stroke-linecap="round"/>
    <path d="M11.8333 41.6667V25.1667" stroke="white" stroke-linecap="round"/>
    <path d="M52.1663 41.6667V25.1667" stroke="white" stroke-linecap="round"/>
</svg>
