<svg width="73" height="72" viewBox="0 0 73 72" fill="none" xmlns="http://www.w3.org/2000/svg">
    <g clip-path="url(#clip0_5028:4030)">
        <path d="M45.7452 50.7032C55.3872 54.9391 65.9145 52.2022 69.2587 44.5901C72.7877 36.6752 64.7774 29.1537 60.3311 26.3823C49.492 18.3534 39.4412 21.3042 37.9828 23.5896L34.342 29.2505C30.9979 36.8625 36.1033 46.4672 45.7452 50.7032Z" fill="#935427"/>
        <path fill-rule="evenodd" clip-rule="evenodd" d="M32.8395 28.4415L36.5498 22.6725C36.5505 22.6715 36.5511 22.6705 36.5517 22.6695C37.2267 21.6143 38.5714 20.8388 39.9938 20.3283C41.5091 19.7844 43.4347 19.4242 45.6347 19.4134C50.0404 19.3919 55.6 20.771 61.295 24.9722C63.664 26.4596 66.946 29.1759 69.2132 32.62C71.5091 36.1075 72.9077 40.5957 70.8213 45.2797C66.9545 54.074 55.2018 56.7175 45.0635 52.2636C34.9237 47.8089 28.9203 37.3623 32.7853 28.5647L32.8395 28.4415ZM69.2626 44.5899C72.7916 36.675 64.7813 29.1535 60.335 26.3822C49.4959 18.3532 39.4451 21.3041 37.9867 23.5895L34.3459 29.2503C31.0018 36.8624 36.1072 46.4671 45.7491 50.703C55.3911 54.9389 65.9184 52.202 69.2626 44.5899Z" fill="#62310F"/>
        <path d="M71.2698 41.5795C67.9256 49.1916 57.3983 51.9285 47.7563 47.6926C38.1143 43.4567 33.009 33.852 36.3531 26.2399C39.6972 18.6278 50.2246 15.8909 59.8665 20.1268C69.5085 24.3627 74.6139 33.9674 71.2698 41.5795Z" fill="#AE6937"/>
        <path fill-rule="evenodd" clip-rule="evenodd" d="M72.8303 42.265C68.9653 51.0626 57.2106 53.7077 47.0707 49.253C36.9308 44.7984 30.9275 34.3518 34.7925 25.5542C38.6575 16.7565 50.4122 14.1114 60.5521 18.5661C70.692 23.0207 76.6953 33.4673 72.8303 42.265ZM47.7563 47.6925C57.3983 51.9284 67.9256 49.1915 71.2697 41.5794C74.6139 33.9673 69.5085 24.3626 59.8665 20.1267C50.2245 15.8908 39.6972 18.6277 36.3531 26.2398C33.0089 33.8518 38.1143 43.4565 47.7563 47.6925Z" fill="#784018"/>
        <path fill-rule="evenodd" clip-rule="evenodd" d="M50.1853 19.9145C45.0686 19.9145 40.9394 22.822 39.5557 24.2387C39.2268 24.5754 38.6872 24.5818 38.3505 24.2529C38.0138 23.924 38.0074 23.3844 38.3363 23.0477C39.9356 21.4103 44.4782 18.21 50.1853 18.21C50.656 18.21 51.0376 18.5915 51.0376 19.0622C51.0376 19.5329 50.656 19.9145 50.1853 19.9145Z" fill="#975728"/>
        <path fill-rule="evenodd" clip-rule="evenodd" d="M53.5296 49.4062C58.4729 48.5617 62.5811 45.831 64.4488 41.5797C67.793 33.9676 62.6876 24.3629 53.0456 20.127C51.1341 19.2872 49.1878 18.7215 47.2695 18.4135C51.1773 17.7458 55.6068 18.2568 59.8638 20.127C69.5057 24.3629 74.6111 33.9676 71.267 41.5797C68.5858 47.6826 61.2873 50.6519 53.5296 49.4062Z" fill="#93592E"/>
        <path d="M31.2489 60.9282C41.0755 57.1404 46.6175 47.7808 43.6271 40.0229C40.6368 32.265 19.104 33.0653 9.27734 36.8531L9.27738 42.0512C11.9439 43.8833 13.667 46.7902 13.667 50.0629C13.667 50.4436 13.6437 50.8193 13.5983 51.1889C16.4586 51.5515 19.0547 53.0437 20.6298 55.5326C21.9672 57.6459 22.3401 60.1166 21.8733 62.4915C24.8809 62.6382 28.0939 62.1443 31.2489 60.9282Z" fill="#B8692F"/>
        <path fill-rule="evenodd" clip-rule="evenodd" d="M7.57227 36.8535C7.57226 36.1487 8.00607 35.5165 8.66374 35.263C13.8416 33.2672 21.9237 32.102 29.0875 32.4058C32.6772 32.558 36.1496 33.0827 38.9699 34.1233C41.7488 35.1488 44.2102 36.7981 45.2171 39.4102C48.6732 48.3764 42.1955 58.5357 31.8614 62.519C28.49 63.8186 25.0402 64.3529 21.7898 64.1944C21.2952 64.1703 20.8356 63.9323 20.5304 63.5424C20.2253 63.1525 20.1048 62.6491 20.2003 62.1632C20.5903 60.1787 20.2734 58.1582 19.189 56.4445C17.9139 54.4296 15.7938 53.1859 13.3834 52.8803C12.452 52.7623 11.7915 51.9133 11.9059 50.9815C11.9429 50.6806 11.9619 50.3743 11.9619 50.0633C11.9619 47.4171 10.5716 45.0093 8.31157 43.4565C7.84881 43.1385 7.57231 42.6131 7.5723 42.0516L7.57227 36.8535ZM9.2768 36.8535C19.1035 33.0657 40.6363 32.2654 43.6266 40.0233C46.617 47.7812 41.075 57.1408 31.2484 60.9286C28.6913 61.9142 26.096 62.4254 23.6029 62.5057C23.02 62.5245 22.4427 62.5197 21.8728 62.4919C21.9833 61.9294 22.0468 61.3615 22.0615 60.7943C22.1088 58.9666 21.6499 57.1457 20.6293 55.533C19.0542 53.044 16.4581 51.5519 13.5977 51.1893C13.6431 50.8197 13.6664 50.4439 13.6664 50.0633C13.6664 46.7905 11.9433 43.8837 9.27684 42.0516L9.2768 36.8535Z" fill="#673512"/>
        <path fill-rule="evenodd" clip-rule="evenodd" d="M20.9948 56.7634C21.4655 56.7634 21.8471 57.145 21.8471 57.6157V62.5162C21.8471 62.9869 21.4655 63.3685 20.9948 63.3685C20.5242 63.3685 20.1426 62.9869 20.1426 62.5162V57.6157C20.1426 57.145 20.5242 56.7634 20.9948 56.7634Z" fill="#673512"/>
        <path fill-rule="evenodd" clip-rule="evenodd" d="M9.27737 40.8439C19.8438 39.0832 33.6099 39.9007 35.9566 45.9888C37.7555 50.6556 36.4668 55.902 33.0152 60.1664C41.726 55.9933 46.4333 47.3029 43.6272 40.0229C40.6368 32.265 19.104 33.0653 9.27734 36.8531L9.27737 40.8439Z" fill="#9D5622"/>
        <path fill-rule="evenodd" clip-rule="evenodd" d="M31.2489 55.8148C41.0755 52.027 46.6175 42.6674 43.6271 34.9095C40.6368 27.1516 30.2465 23.9332 20.4199 27.721C15.3973 29.657 11.4941 33.0485 9.27734 36.9378C11.9438 38.7699 13.6669 41.6768 13.6669 44.9495C13.6669 45.3302 13.6436 45.7059 13.5982 46.0756C16.4586 46.4382 19.0547 47.9303 20.6298 50.4193C21.9671 52.5325 22.34 55.0032 21.8733 57.3781C24.8809 57.5248 28.0939 57.0309 31.2489 55.8148Z" fill="#CC7A3D"/>
        <path fill-rule="evenodd" clip-rule="evenodd" d="M8.31171 38.3425C7.58149 37.8407 7.35738 36.8633 7.79609 36.0935C10.2225 31.8364 14.4466 28.1962 19.8064 26.1302C30.1406 22.1469 41.7612 25.33 45.2172 34.2962C48.6733 43.2624 42.1957 53.4216 31.8616 57.405C28.4902 58.7045 25.0403 59.2389 21.7899 59.0804C21.2954 59.0563 20.8357 58.8183 20.5306 58.4284C20.2254 58.0384 20.1049 57.5351 20.2004 57.0492C20.5904 55.0647 20.2736 53.0442 19.1891 51.3305C17.914 49.3156 15.7939 48.0719 13.3835 47.7663C12.4522 47.6482 11.7916 46.7993 11.906 45.8675C11.943 45.5666 11.962 45.2602 11.962 44.9492C11.962 42.3031 10.5718 39.8953 8.31171 38.3425ZM9.27698 36.9376C11.4937 33.0483 15.3969 29.6567 20.4195 27.7207C30.2462 23.9329 40.6364 27.1514 43.6268 34.9093C46.6171 42.6672 41.0752 52.0268 31.2485 55.8145C28.6914 56.8002 26.0961 57.3114 23.603 57.3917C23.0202 57.4105 22.4429 57.4057 21.8729 57.3779C21.9835 56.8154 22.0469 56.2475 22.0616 55.6802C22.1089 53.8526 21.65 52.0317 20.6294 50.419C19.0543 47.93 16.4582 46.4379 13.5979 46.0753C13.6433 45.7056 13.6666 45.3299 13.6666 44.9492C13.6666 41.6765 11.9435 38.7697 9.27698 36.9376Z" fill="#773E15"/>
        <path fill-rule="evenodd" clip-rule="evenodd" d="M11.104 36.2018C11.3462 35.7981 11.8697 35.6673 12.2733 35.9094C13.9797 36.9333 15.1115 38.669 15.8379 40.3248C16.4293 41.6729 16.7821 43.0362 16.9561 44.0755C19.4953 44.5089 21.3597 46.3067 22.6439 48.2739C23.8444 50.113 24.6136 52.2073 25.0155 53.8143C27.6161 53.4262 32.8377 51.9308 37.3985 48.2298C37.764 47.9332 38.3007 47.9891 38.5973 48.3546C38.8939 48.7201 38.8381 49.2568 38.4726 49.5534C33.118 53.8985 26.9238 55.3935 24.4228 55.6003L23.6633 55.6631L23.5163 54.9154C23.2214 53.416 22.4747 51.133 21.2165 49.2057C19.9529 47.2699 18.2757 45.8381 16.145 45.6936L15.4315 45.6453L15.3553 44.9341C15.2571 44.0178 14.931 42.5004 14.277 41.0096C13.6185 39.5085 12.6728 38.137 11.3963 37.3711C10.9927 37.1289 10.8618 36.6054 11.104 36.2018Z" fill="#E08847"/>
        <path fill-rule="evenodd" clip-rule="evenodd" d="M31.6248 52.7165C31.8011 53.1529 31.5903 53.6497 31.1539 53.826C28.3121 54.9744 25.8171 55.4844 24.4206 55.5999C23.9515 55.6387 23.5398 55.2899 23.501 54.8208C23.4622 54.3517 23.811 53.94 24.2801 53.9012C25.4848 53.8015 27.8121 53.338 30.5153 52.2457C30.9517 52.0693 31.4484 52.2801 31.6248 52.7165Z" fill="#F29754"/>
        <path d="M28.1087 30.3486C28.0926 31.118 27.2822 31.725 26.2987 31.7044C25.3151 31.6838 24.5309 31.0434 24.547 30.274C24.5631 29.5046 25.3735 28.8976 26.357 28.9181C27.3405 28.9387 28.1248 29.5792 28.1087 30.3486Z" fill="#BE6E34"/>
        <path d="M32.4885 30.5838C32.4775 31.1105 31.9227 31.5261 31.2495 31.512C30.5762 31.4979 30.0393 31.0595 30.0503 30.5328C30.0614 30.0061 30.6161 29.5905 31.2894 29.6046C31.9627 29.6187 32.4995 30.0571 32.4885 30.5838Z" fill="#BE6E34"/>
        <path d="M37.8479 32.2809C37.8369 32.8076 37.2821 33.2231 36.6088 33.209C35.9356 33.1949 35.3987 32.7565 35.4097 32.2298C35.4207 31.7031 35.9755 31.2875 36.6488 31.3016C37.322 31.3157 37.8589 31.7541 37.8479 32.2809Z" fill="#BE6E34"/>
        <path d="M33.8235 33.1234C33.8153 33.5155 33.4023 33.8248 32.9012 33.8143C32.4 33.8038 32.0004 33.4775 32.0086 33.0854C32.0168 32.6933 32.4297 32.384 32.9309 32.3945C33.4321 32.405 33.8317 32.7313 33.8235 33.1234Z" fill="#BE6E34"/>
        <path d="M29.5852 27.8043C29.577 28.1964 29.1641 28.5057 28.6629 28.4952C28.1617 28.4847 27.7621 28.1584 27.7703 27.7663C27.7785 27.3742 28.1914 27.0649 28.6926 27.0754C29.1938 27.0859 29.5934 27.4122 29.5852 27.8043Z" fill="#BE6E34"/>
        <path d="M35.3391 29.2242C35.3309 29.6163 34.918 29.9256 34.4168 29.9151C33.9156 29.9046 33.516 29.5783 33.5242 29.1862C33.5324 28.7942 33.9453 28.4848 34.4465 28.4953C34.9477 28.5058 35.3473 28.8321 35.3391 29.2242Z" fill="#BE6E34"/>
        <path d="M41.2376 33.2533C41.2293 33.6453 40.8164 33.9547 40.3152 33.9442C39.8141 33.9337 39.4144 33.6073 39.4226 33.2153C39.4308 32.8232 39.8438 32.5139 40.345 32.5244C40.8461 32.5349 41.2458 32.8612 41.2376 33.2533Z" fill="#BE6E34"/>
        <path d="M19.5937 33.5883C19.5896 33.7835 19.384 33.9376 19.1344 33.9324C18.8848 33.9271 18.6858 33.7646 18.6899 33.5694C18.694 33.3741 18.8996 33.2201 19.1492 33.2253C19.3988 33.2305 19.5978 33.393 19.5937 33.5883Z" fill="#BE6E34"/>
        <path d="M22.302 29.2625C22.2938 29.6546 21.8809 29.9639 21.3797 29.9535C20.8785 29.943 20.4789 29.6166 20.4871 29.2246C20.4953 28.8325 20.9082 28.5232 21.4094 28.5336C21.9106 28.5441 22.3102 28.8705 22.302 29.2625Z" fill="#BE6E34"/>
        <path d="M23.634 32.0489C23.6258 32.441 23.2129 32.7503 22.7117 32.7398C22.2105 32.7293 21.8109 32.403 21.8191 32.0109C21.8273 31.6189 22.2403 31.3095 22.7414 31.32C23.2426 31.3305 23.6422 31.6569 23.634 32.0489Z" fill="#BE6E34"/>
        <path d="M36.6496 35.2914C36.6414 35.6834 36.2285 35.9927 35.7273 35.9823C35.2262 35.9718 34.8265 35.6454 34.8347 35.2534C34.843 34.8613 35.2559 34.552 35.7571 34.5625C36.2582 34.5729 36.6579 34.8993 36.6496 35.2914Z" fill="#BE6E34"/>
        <path d="M19.6985 31.1444C19.6903 31.5365 19.2773 31.8458 18.7762 31.8353C18.275 31.8248 17.8754 31.4985 17.8836 31.1064C17.8918 30.7143 18.3047 30.405 18.8059 30.4155C19.3071 30.426 19.7067 30.7523 19.6985 31.1444Z" fill="#BE6E34"/>
        <path d="M30.0008 33.631C29.9908 34.1119 29.4843 34.4913 28.8696 34.4784C28.2548 34.4655 27.7647 34.0652 27.7747 33.5844C27.7848 33.1035 28.2913 32.7241 28.906 32.7369C29.5207 32.7498 30.0109 33.1501 30.0008 33.631Z" fill="#BE6E34"/>
        <path d="M52.8765 26.7531C52.2828 27.9341 50.5776 28.2763 49.0679 27.5174C47.5582 26.7584 46.8156 25.1858 47.4094 24.0047C48.0031 22.8236 49.7082 22.4815 51.218 23.2404C52.7277 23.9993 53.4703 25.572 52.8765 26.7531Z" fill="#3C1D0C"/>
        <path d="M61.225 24.1334C60.8794 24.821 59.8866 25.0202 59.0077 24.5783C58.1288 24.1365 57.6965 23.2209 58.0421 22.5333C58.3878 21.8457 59.3805 21.6465 60.2594 22.0884C61.1384 22.5302 61.5707 23.4458 61.225 24.1334Z" fill="#D78346"/>
        <path d="M65.0766 26.2306C64.84 26.7012 64.1604 26.8376 63.5587 26.5352C62.9571 26.2327 62.6611 25.6059 62.8977 25.1352C63.1344 24.6645 63.8139 24.5282 64.4156 24.8306C65.0173 25.1331 65.3132 25.7599 65.0766 26.2306Z" fill="#D78346"/>
        <path d="M69.1782 30.0658C68.9416 30.5364 68.262 30.6728 67.6603 30.3704C67.0586 30.0679 66.7627 29.4411 66.9993 28.9704C67.2359 28.4997 67.9155 28.3634 68.5172 28.6658C69.1188 28.9683 69.4148 29.5951 69.1782 30.0658Z" fill="#D78346"/>
        <path d="M65.1819 29.096C65.0058 29.4464 64.4999 29.5479 64.052 29.3227C63.6041 29.0976 63.3839 28.631 63.56 28.2806C63.7361 27.9303 64.242 27.8288 64.6899 28.0539C65.1377 28.2791 65.358 28.7456 65.1819 29.096Z" fill="#D78346"/>
        <path d="M56.4456 20.6541C56.2694 21.0045 55.7636 21.106 55.3157 20.8808C54.8678 20.6557 54.6475 20.1891 54.8237 19.8388C54.9998 19.4884 55.5057 19.3869 55.9535 19.612C56.4014 19.8372 56.6217 20.3037 56.4456 20.6541Z" fill="#D78346"/>
        <path d="M56.4456 23.7412C56.2694 24.0916 55.7636 24.1931 55.3157 23.968C54.8678 23.7428 54.6475 23.2763 54.8237 22.9259C54.9998 22.5755 55.5057 22.474 55.9535 22.6992C56.4014 22.9243 56.6217 23.3909 56.4456 23.7412Z" fill="#D78346"/>
        <path d="M66.8069 32.2713C66.6308 32.6216 66.1249 32.7232 65.677 32.498C65.2291 32.2729 65.0089 31.8063 65.185 31.4559C65.3611 31.1056 65.867 31.0041 66.3149 31.2292C66.7627 31.4543 66.983 31.9209 66.8069 32.2713Z" fill="#D78346"/>
        <path d="M53.2913 21.2317C53.1151 21.5821 52.6093 21.6836 52.1614 21.4585C51.7135 21.2333 51.4932 20.7668 51.6694 20.4164C51.8455 20.066 52.3514 19.9645 52.7992 20.1897C53.2471 20.4148 53.4674 20.8814 53.2913 21.2317Z" fill="#D78346"/>
        <path d="M61.5201 27.91C61.304 28.3398 60.6836 28.4643 60.1342 28.1881C59.5849 27.912 59.3147 27.3397 59.5307 26.91C59.7467 26.4802 60.3672 26.3557 60.9166 26.6319C61.4659 26.908 61.7361 27.4803 61.5201 27.91Z" fill="#D78346"/>
        <path d="M23.1706 36.1347C23.5512 37.1391 22.8189 38.3477 21.535 38.8342C20.2511 39.3207 18.9018 38.9009 18.5212 37.8965C18.1406 36.8921 18.8728 35.6835 20.1567 35.197C21.4407 34.7105 22.79 35.1303 23.1706 36.1347Z" fill="#3C1D0C"/>
        <path d="M37.8593 39.7196C38.3277 40.9557 37.4265 42.4432 35.8463 43.0419C34.2662 43.6407 32.6056 43.124 32.1372 41.8878C31.6688 40.6517 32.57 39.1643 34.1501 38.5655C35.7302 37.9668 37.3909 38.4835 37.8593 39.7196Z" fill="#3C1D0C"/>
        <path d="M26.432 45.7757C26.7218 46.5404 26.1642 47.4607 25.1867 47.8311C24.2091 48.2015 23.1817 47.8819 22.8919 47.1171C22.6021 46.3524 23.1597 45.4321 24.1372 45.0617C25.1148 44.6913 26.1422 45.0109 26.432 45.7757Z" fill="#3C1D0C"/>
        <path d="M55.4879 39.9516C54.8941 41.1326 53.189 41.4748 51.6793 40.7159C50.1695 39.9569 49.427 38.3842 50.0207 37.2032C50.6144 36.0221 52.3196 35.6799 53.8293 36.4389C55.339 37.1978 56.0816 38.7705 55.4879 39.9516Z" fill="#3C1D0C"/>
        <path d="M67.3824 36.9403C66.7887 38.1214 65.0835 38.4636 63.5738 37.7046C62.0641 36.9457 61.3215 35.373 61.9152 34.192C62.5089 33.0109 64.2141 32.6687 65.7238 33.4277C67.2335 34.1866 67.9761 35.7593 67.3824 36.9403Z" fill="#3C1D0C"/>
    </g>
    <defs>
        <clipPath id="clip0_5028:4030">
            <rect width="72" height="72" fill="white" transform="translate(0.541016)"/>
        </clipPath>
    </defs>
</svg>
